<svg xmlns="http://www.w3.org/2000/svg" width="20" height="20" viewBox="0 0 20 20"><defs><clipPath id="tisva"><path fill="#fff" d="M20 7.782c0 .49-2.311 2.475-5.188 4.704l-.007-.025v.031l.007-.006C15.99 16.532 16.77 20 16.25 20c-.499 0-3.19-1.746-6.239-3.917l-.011.005c-.003 0-.018-.01-.022-.01C6.934 18.252 4.248 20 3.75 20c-.52 0 .258-3.46 1.433-7.5a.124.124 0 0 0 .009.007c-.002-.007-.002-.017-.003-.025a.562.562 0 0 1-.006.018C2.31 10.274 0 8.287 0 7.782c0-.512 3.147-.813 6.943-.914.002-.003.007-.012.01-.014l.011-.002C8.243 3.097 9.508 0 10 0c.491 0 1.757 3.097 3.035 6.851l.012.003.01.02c3.795.108 6.943.412 6.943.908z"/></clipPath></defs><g><g><path fill="none" d="M20 7.782c0 .49-2.311 2.475-5.188 4.704l-.007-.025v.031l.007-.006C15.99 16.532 16.77 20 16.25 20c-.499 0-3.19-1.746-6.239-3.917l-.011.005c-.003 0-.018-.01-.022-.01C6.934 18.252 4.248 20 3.75 20c-.52 0 .258-3.46 1.433-7.5a.124.124 0 0 0 .009.007c-.002-.007-.002-.017-.003-.025a.562.562 0 0 1-.006.018C2.31 10.274 0 8.287 0 7.782c0-.512 3.147-.813 6.943-.914.002-.003.007-.012.01-.014l.011-.002C8.243 3.097 9.508 0 10 0c.491 0 1.757 3.097 3.035 6.851l.012.003.01.02c3.795.108 6.943.412 6.943.908z"/><path fill="none" stroke="#716a6c" stroke-linecap="round" stroke-linejoin="round" stroke-miterlimit="20" stroke-opacity=".3" stroke-width="2" d="M20 7.782c0 .49-2.311 2.475-5.188 4.704l-.007-.025v.031l.007-.006C15.99 16.532 16.77 20 16.25 20c-.499 0-3.19-1.746-6.239-3.917l-.011.005c-.003 0-.018-.01-.022-.01C6.934 18.252 4.248 20 3.75 20c-.52 0 .258-3.46 1.433-7.5a.124.124 0 0 0 .009.007c-.002-.007-.002-.017-.003-.025a.562.562 0 0 1-.006.018C2.31 10.274 0 8.287 0 7.782c0-.512 3.147-.813 6.943-.914.002-.003.007-.012.01-.014l.011-.002C8.243 3.097 9.508 0 10 0c.491 0 1.757 3.097 3.035 6.851l.012.003.01.02c3.795.108 6.943.412 6.943.908z" clip-path="url(&quot;#tisva&quot;)"/></g></g></svg>